The second season begins with Curt Connors transforming into the Lizard.


Format                                   : MPEG-4
Format profile                           : Base Media
Codec ID                                 : isom
File size                                : 349 MiB
Duration                                 : 22mn 8s
Overall bit rate mode                    : Variable
Overall bit rate                         : 2 207 Kbps
Movie name                               : The Lizard
Album                                    : Ultimate Spider-Man, Season 2
Part/Position                            : 1
Part/Total                               : 1
Track name/Position                      : 1
Track name/Total                         : 2
Performer                                : Ultimate Spider-Man
Genre                                    : Animation
Recorded date                            : UTC 2013-01-21 08:00:00
Tagged date                              : UTC 2013-01-16 21:01:08
Cover                                    : Yes
desc                                     : The Ultimate Spider-Man returns to stop the nefarious plot of Doctor Octopus
ldes                                     : The Ultimate Spider-Man returns to stop the nefarious plot of Doctor Octopus.

Video
ID                                       : 1
Format                                   : AVC
Format/Info                              : Advanced Video Codec
Format profile                           : Baseline@L3.0
Format settings, CABAC                   : No
Format settings, ReFrames                : 3 frames
Codec ID                                 : avc1
Codec ID/Info                            : Advanced Video Coding
Duration                                 : 22mn 6s
Bit rate                                 : 2 076 Kbps
Width                                    : 1 280 pixels
Height                                   : 720 pixels
Display aspect ratio                     : 16:9
Frame rate mode                          : Constant
Frame rate                               : 23.976 fps
Color space                              : YUV
Chroma subsampling                       : 4:2:0
Bit depth                                : 8 bits
Scan type                                : Progressive
Bits/(Pixel*Frame)                       : 0.094
Stream size                              : 328 MiB (94%)
Writing library                          : x264 core 102
Encoding settings                        : cabac=0 / ref=3 / deblock=1:0:0 / 

Audio
ID                                       : 2
Format                                   : AAC
Format/Info                              : Advanced Audio Codec
Format profile                           : LC
Codec ID                                 : 40
Duration                                 : 22mn 8s
Bit rate mode                            : Variable
Bit rate                                 : 128 Kbps
Maximum bit rate                         : 216 Kbps
Channel(s)                               : 2 channels
Channel positions                        : Front: L R
Sampling rate                            : 48.0 KHz
Compression mode                         : Lossy
Stream size                              : 20.3 MiB (6%)
Language                                 : English

